<?xml version="1.0" encoding="UTF-8" standalone="no"?>
<svg
   xmlns:dc="http://purl.org/dc/elements/1.1/"
   xmlns:cc="http://creativecommons.org/ns#"
   xmlns:rdf="http://www.w3.org/1999/02/22-rdf-syntax-ns#"
   xmlns:svg="http://www.w3.org/2000/svg"
   xmlns="http://www.w3.org/2000/svg"
   viewBox="0 0 1133.8586 793.70135"
   height="793.70135"
   width="1133.8586"
   xml:space="preserve"
   id="svg2"
   version="1.1"><metadata
     id="metadata8"><rdf:RDF><cc:Work
         rdf:about=""><dc:format>image/svg+xml</dc:format><dc:type
           rdf:resource="http://purl.org/dc/dcmitype/StillImage" /></cc:Work></rdf:RDF></metadata><defs
     id="defs6"><clipPath
       id="clipPath20"
       clipPathUnits="userSpaceOnUse"><path
         id="path18"
         d="M 0,595.276 H 850.394 V 0 H 0 Z" /></clipPath></defs><g
     transform="matrix(1.3333333,0,0,-1.3333333,0,793.70133)"
     id="g10"><path
       id="path12"
       style="fill:#ee7203;fill-opacity:1;fill-rule:nonzero;stroke:none"
       d="M 0,0 H 850.394 V 595.275 H 0 Z" /><g
       id="g14"><g
         clip-path="url(#clipPath20)"
         id="g16"><g
           transform="translate(642.8552,263.1063)"
           id="g22"><path
             id="path24"
             style="fill:#575756;fill-opacity:1;fill-rule:evenodd;stroke:none"
             d="m 0,0 c 0,-2.048 0,-4.28 -0.373,-6.327 -1.114,-7.062 -7.246,-13.012 -15.429,-13.012 -10.603,0 -18.229,7.621 -18.229,20.823 0,11.529 5.766,21.389 18.409,21.389 8.003,0 14.135,-5.768 15.434,-13.018 C 0,8.551 0,7.067 0,5.757 Z M 0,88.327 V 39.974 h -0.373 c -4.836,6.511 -14.504,8.923 -25.102,8.923 -23.431,0 -44.626,-18.219 -44.441,-48.712 0,-30.495 20.829,-47.235 42.21,-47.235 11.342,0 23.612,3.91 30.496,15.433 h 0.372 l 1.303,-13.2 h 31.42 c -0.367,4.837 -0.743,16.922 -0.743,28.825 V 88.327 Z" /></g><g
           transform="translate(745.4465,254.5496)"
           id="g26"><path
             id="path28"
             style="fill:#575756;fill-opacity:1;fill-rule:evenodd;stroke:none"
             d="m 0,0 c 0,-1.669 0,-3.535 -0.376,-5.023 -1.479,-5.386 -7.06,-9.481 -12.455,-9.481 -6.504,0 -10.044,2.973 -10.044,8.182 0,7.442 7.432,11.342 22.875,11.342 z m 33.846,17.107 c 0,24.547 -13.397,40.346 -44.812,40.346 -20.458,0 -34.041,-5.388 -39.988,-8.548 l 6.142,-21.94 c 5.952,3.345 17.47,7.252 27.704,7.252 13.759,0 15.99,-4.093 15.99,-7.438 v -0.563 c -34.583,0 -56.525,-11.338 -56.525,-35.882 0,-14.879 11.898,-28.827 31.98,-28.827 10.415,0 20.087,2.598 26.776,10.044 h 0.743 l 1.86,-7.811 h 31.61 c -0.919,4.089 -1.48,13.021 -1.48,22.685 z" /></g><g
           transform="translate(163.0017,279.7662)"
           id="g30"><path
             id="path32"
             style="fill:#ffffff;fill-opacity:1;fill-rule:evenodd;stroke:none"
             d="m 0,0 c 0,13.024 -0.371,23.624 -0.751,31.807 h 29.2 L 29.753,20.09 h 0.741 c 2.788,3.9 10.787,13.946 28.64,13.946 11.896,0 21.938,-5.581 26.214,-15.441 h 0.369 c 4.097,5.212 8.559,8.929 13.58,11.536 5.016,2.602 10.783,3.905 17.295,3.905 20.266,0 33.282,-14.13 33.282,-40.911 v -52.813 h -33.842 v 47.61 c 0,11.896 -4.088,18.215 -12.087,18.215 -5.95,0 -9.669,-3.898 -11.159,-8.365 -0.741,-2.225 -0.925,-5.205 -0.925,-7.061 V -59.688 H 58.014 v 47.61 c 0,11.896 -4.089,18.215 -12.085,18.215 -7.067,0 -10.043,-5.388 -11.156,-8.177 -0.932,-2.413 -0.932,-4.835 -0.932,-6.884 v -50.764 l -33.841,0 z" /></g><g
           transform="translate(374.2852,242.2117)"
           id="g34"><path
             id="path36"
             style="fill:#ffffff;fill-opacity:1;fill-rule:evenodd;stroke:none"
             d="m 0,0 c -11.345,0 -16.549,10.599 -16.549,23.611 0,11.905 4.46,23.617 16.733,23.617 11.16,0 15.991,-10.784 15.991,-23.617 C 16.175,8.368 10.227,0 0.184,0 Z m -0.373,-24.357 c 29.382,0 53.364,17.845 53.364,49.084 0,27.52 -21.005,46.861 -51.315,46.861 -35.151,0 -54.671,-20.824 -54.671,-48.714 0,-30.128 23.985,-47.231 52.437,-47.231 z" /></g><g
           transform="translate(460.5686,311.5721)"
           id="g38"><path
             id="path40"
             style="fill:#ffffff;fill-opacity:1;fill-rule:evenodd;stroke:none"
             d="m 0,0 11.526,-39.61 c 2.048,-6.877 3.349,-13.573 4.467,-19.896 h 0.742 c 1.117,6.696 2.231,12.83 4.086,19.896 L 31.236,0 H 68.798 L 32.729,-91.495 H -3.349 L -38.308,0 Z" /></g><g
           transform="translate(580.3209,201.9454)"
           id="g42"><path
             id="path44"
             style="fill:#ffffff;fill-opacity:1;fill-rule:evenodd;stroke:none"
             d="m 0,0 c -13.124,17.103 -20.936,38.498 -20.936,61.716 0,25.651 5.366,49.002 21.062,66.862 l -25.054,13.472 c -17.479,-22.081 -24.121,-49.99 -24.121,-80.334 0,-28.094 8.937,-54.101 24.128,-75.33 z" /></g><g
           transform="translate(598.6139,360.2821)"
           id="g46"><path
             id="path48"
             style="fill:#ffffff;fill-opacity:1;fill-rule:evenodd;stroke:none"
             d="m 0,0 c 0,-10.002 -8.107,-18.103 -18.096,-18.103 -10,0 -18.098,8.101 -18.098,18.103 0,9.99 8.098,18.094 18.098,18.094 C -8.107,18.094 0,9.99 0,0" /></g><g
           transform="translate(176.7422,182.2164)"
           id="g50"><path
             id="path52"
             style="fill:#1d1d1b;fill-opacity:1;fill-rule:nonzero;stroke:none"
             d="m 0,0 c -3.97,0.05 -7.048,-0.894 -7.048,-3.822 0,-1.935 1.291,-2.878 2.978,-2.878 1.886,0 3.425,1.241 3.921,2.779 C -0.05,-3.524 0,-3.077 0,-2.63 Z M 0.893,-11.464 0.446,-9.032 H 0.298 c -1.588,-1.936 -4.07,-2.978 -6.948,-2.978 -4.914,0 -7.841,3.573 -7.841,7.444 0,6.303 5.657,9.33 14.243,9.28 v 0.348 c 0,1.29 -0.695,3.126 -4.417,3.126 -2.481,0 -5.112,-0.843 -6.7,-1.836 l -1.389,4.863 c 1.687,0.944 5.012,2.134 9.429,2.134 8.089,0 10.67,-4.764 10.67,-10.471 v -8.436 c 0,-2.333 0.099,-4.566 0.347,-5.906 z" /></g><path
           id="path54"
           style="fill:#1d1d1b;fill-opacity:1;fill-rule:nonzero;stroke:none"
           d="m 190.037,205.988 h 7.543 v -35.235 h -7.543 z" /><g
           transform="translate(226.5586,178.5441)"
           id="g56"><path
             id="path58"
             style="fill:#1d1d1b;fill-opacity:1;fill-rule:nonzero;stroke:none"
             d="m 0,0 c 0,-3.176 0.1,-5.757 0.198,-7.792 h -6.55 L -6.7,-4.368 h -0.148 c -0.943,-1.488 -3.226,-3.97 -7.593,-3.97 -4.914,0 -8.536,3.077 -8.536,10.571 v 14.243 h 7.592 V 3.424 c 0,-3.524 1.142,-5.658 3.772,-5.658 2.085,0 3.276,1.44 3.772,2.631 0.198,0.446 0.248,1.042 0.248,1.637 V 16.476 H 0 Z" /></g><g
           transform="translate(248.0399,185.1445)"
           id="g60"><path
             id="path62"
             style="fill:#1d1d1b;fill-opacity:1;fill-rule:nonzero;stroke:none"
             d="m 0,0 c 0,0.496 -0.05,0.992 -0.149,1.389 -0.546,1.985 -1.985,3.325 -4.069,3.325 -2.729,0 -4.963,-2.481 -4.963,-6.898 0,-3.622 1.787,-6.452 4.963,-6.452 1.935,0 3.474,1.291 3.97,3.078 C -0.05,-5.012 0,-4.218 0,-3.574 Z M 7.742,9.875 C 7.643,8.337 7.544,6.303 7.544,2.679 v -13.547 c 0,-4.666 -0.944,-8.487 -3.673,-10.919 -2.68,-2.282 -6.303,-2.977 -9.876,-2.977 -3.176,0 -6.55,0.645 -8.734,1.886 l 1.488,5.707 c 1.54,-0.893 4.219,-1.837 7.048,-1.837 3.573,0 6.303,1.936 6.303,6.402 v 1.588 H 0 c -1.439,-2.034 -3.771,-3.176 -6.551,-3.176 -6.004,0 -10.272,4.864 -10.272,11.861 0,7.792 5.062,12.754 11.017,12.754 3.325,0 5.409,-1.439 6.65,-3.424 h 0.099 l 0.248,2.878 z" /></g><g
           transform="translate(284.5092,178.5441)"
           id="g64"><path
             id="path66"
             style="fill:#1d1d1b;fill-opacity:1;fill-rule:nonzero;stroke:none"
             d="m 0,0 c 0,-3.176 0.1,-5.757 0.198,-7.792 h -6.55 L -6.7,-4.368 h -0.148 c -0.943,-1.488 -3.226,-3.97 -7.593,-3.97 -4.914,0 -8.536,3.077 -8.536,10.571 v 14.243 h 7.592 V 3.424 c 0,-3.524 1.142,-5.658 3.772,-5.658 2.085,0 3.276,1.44 3.772,2.631 0.199,0.446 0.248,1.042 0.248,1.637 V 16.476 H 0 Z" /></g><g
           transform="translate(305.2463,185.6406)"
           id="g68"><path
             id="path70"
             style="fill:#1d1d1b;fill-opacity:1;fill-rule:nonzero;stroke:none"
             d="M 0,0 C 0,1.836 -0.794,4.913 -4.268,4.913 -7.444,4.913 -8.734,2.034 -8.933,0 Z m -8.883,-5.162 c 0.248,-3.126 3.325,-4.615 6.849,-4.615 2.58,0 4.664,0.347 6.699,0.993 l 0.993,-5.112 c -2.482,-0.992 -5.509,-1.489 -8.784,-1.489 -8.239,0 -12.953,4.765 -12.953,12.357 0,6.154 3.821,12.953 12.257,12.953 7.842,0 10.82,-6.104 10.82,-12.109 0,-1.29 -0.15,-2.432 -0.248,-2.978 z" /></g><path
           id="path72"
           style="fill:#1d1d1b;fill-opacity:1;fill-rule:nonzero;stroke:none"
           d="m 316.754,205.988 h 7.543 v -35.235 h -7.543 z" /><g
           transform="translate(356.3997,184.7471)"
           id="g74"><path
             id="path76"
             style="fill:#1d1d1b;fill-opacity:1;fill-rule:nonzero;stroke:none"
             d="m 0,0 c 0,0.397 -0.05,0.943 -0.099,1.34 -0.447,2.034 -2.085,3.722 -4.417,3.722 -3.424,0 -5.211,-3.077 -5.211,-6.898 0,-4.119 2.035,-6.7 5.161,-6.7 2.184,0 3.921,1.489 4.368,3.623 C -0.05,-4.367 0,-3.821 0,-3.176 Z m 7.544,21.241 v -27.99 c 0,-2.73 0.099,-5.608 0.198,-7.246 h -6.7 l -0.347,3.574 H 0.596 c -1.539,-2.73 -4.467,-4.12 -7.593,-4.12 -5.757,0 -10.372,4.913 -10.372,12.457 -0.05,8.188 5.062,12.903 10.868,12.903 2.978,0 5.31,-1.042 6.402,-2.729 H 0 v 13.151 z" /></g><g
           transform="translate(384.6806,185.6406)"
           id="g78"><path
             id="path80"
             style="fill:#1d1d1b;fill-opacity:1;fill-rule:nonzero;stroke:none"
             d="M 0,0 C 0,1.836 -0.794,4.913 -4.268,4.913 -7.444,4.913 -8.734,2.034 -8.933,0 Z m -8.883,-5.162 c 0.248,-3.126 3.325,-4.615 6.849,-4.615 2.58,0 4.664,0.347 6.699,0.993 l 0.993,-5.112 c -2.482,-0.992 -5.509,-1.489 -8.784,-1.489 -8.239,0 -12.953,4.765 -12.953,12.357 0,6.154 3.821,12.953 12.257,12.953 7.842,0 10.82,-6.104 10.82,-12.109 0,-1.29 -0.15,-2.432 -0.248,-2.978 z" /></g><g
           transform="translate(424.4233,171.348)"
           id="g82"><path
             id="path84"
             style="fill:#1d1d1b;fill-opacity:1;fill-rule:nonzero;stroke:none"
             d="m 0,0 c -1.34,-0.596 -3.871,-1.092 -6.75,-1.092 -7.84,0 -12.853,4.764 -12.853,12.407 0,7.096 4.863,12.903 13.895,12.903 1.986,0 4.17,-0.347 5.758,-0.943 l -1.192,-5.608 c -0.893,0.397 -2.233,0.744 -4.218,0.744 -3.97,0 -6.551,-2.828 -6.501,-6.798 0,-4.467 2.977,-6.799 6.65,-6.799 1.787,0 3.176,0.297 4.317,0.744 z" /></g><g
           transform="translate(441.6879,182.2164)"
           id="g86"><path
             id="path88"
             style="fill:#1d1d1b;fill-opacity:1;fill-rule:nonzero;stroke:none"
             d="m 0,0 c -3.97,0.05 -7.048,-0.894 -7.048,-3.822 0,-1.935 1.291,-2.878 2.978,-2.878 1.886,0 3.425,1.241 3.921,2.779 C -0.05,-3.524 0,-3.077 0,-2.63 Z M 0.893,-11.464 0.446,-9.032 H 0.298 c -1.588,-1.936 -4.07,-2.978 -6.948,-2.978 -4.914,0 -7.841,3.573 -7.841,7.444 0,6.303 5.657,9.33 14.243,9.28 v 0.348 c 0,1.29 -0.695,3.126 -4.417,3.126 -2.481,0 -5.111,-0.843 -6.7,-1.836 l -1.389,4.863 c 1.687,0.944 5.012,2.134 9.429,2.134 8.089,0 10.67,-4.764 10.67,-10.471 v -8.436 c 0,-2.333 0.099,-4.566 0.347,-5.906 z" /></g><g
           transform="translate(454.9823,187.0304)"
           id="g90"><path
             id="path92"
             style="fill:#1d1d1b;fill-opacity:1;fill-rule:nonzero;stroke:none"
             d="M 0,0 C 0,3.573 -0.1,5.905 -0.199,7.989 H 6.303 L 6.551,3.523 h 0.198 c 1.24,3.524 4.218,5.012 6.551,5.012 0.695,0 1.042,0 1.588,-0.098 V 1.339 c -0.546,0.1 -1.191,0.199 -2.035,0.199 -2.779,0 -4.665,-1.489 -5.161,-3.821 C 7.593,-2.779 7.543,-3.375 7.543,-3.971 V -16.278 H 0 Z" /></g><g
           transform="translate(473.8357,187.0304)"
           id="g94"><path
             id="path96"
             style="fill:#1d1d1b;fill-opacity:1;fill-rule:nonzero;stroke:none"
             d="M 0,0 C 0,3.573 -0.1,5.905 -0.199,7.989 H 6.303 L 6.551,3.523 h 0.198 c 1.24,3.524 4.218,5.012 6.551,5.012 0.695,0 1.042,0 1.588,-0.098 V 1.339 c -0.546,0.1 -1.191,0.199 -2.035,0.199 -2.779,0 -4.665,-1.489 -5.161,-3.821 C 7.593,-2.779 7.543,-3.375 7.543,-3.971 V -16.278 H 0 Z" /></g><g
           transform="translate(498.6938,182.9109)"
           id="g98"><path
             id="path100"
             style="fill:#1d1d1b;fill-opacity:1;fill-rule:nonzero;stroke:none"
             d="m 0,0 c 0,-4.169 1.737,-7.295 4.963,-7.295 2.928,0 4.814,2.928 4.814,7.295 0,3.623 -1.39,7.296 -4.814,7.296 C 1.341,7.296 0,3.574 0,0 m 17.568,0.248 c 0,-8.883 -6.302,-12.953 -12.804,-12.953 -7.096,0 -12.555,4.665 -12.555,12.507 0,7.841 5.161,12.853 12.952,12.853 7.444,0 12.407,-5.111 12.407,-12.407" /></g><g
           transform="translate(520.8697,177.3527)"
           id="g102"><path
             id="path104"
             style="fill:#1d1d1b;fill-opacity:1;fill-rule:nonzero;stroke:none"
             d="m 0,0 c 1.39,-0.844 4.268,-1.836 6.502,-1.836 2.283,0 3.225,0.794 3.225,2.034 0,1.242 -0.745,1.836 -3.572,2.78 -5.013,1.687 -6.948,4.416 -6.899,7.295 0,4.516 3.87,7.94 9.876,7.94 2.829,0 5.36,-0.645 6.848,-1.39 l -1.339,-5.21 c -1.092,0.595 -3.176,1.389 -5.26,1.389 -1.837,0 -2.879,-0.744 -2.879,-1.985 0,-1.141 0.942,-1.737 3.921,-2.779 4.615,-1.588 6.55,-3.92 6.599,-7.494 0,-4.516 -3.572,-7.841 -10.52,-7.841 -3.177,0 -6.006,0.695 -7.841,1.687 z" /></g><g
           transform="translate(80.3551,378.2916)"
           id="g106"><path
             id="path108"
             style="fill:#1d1d1b;fill-opacity:1;fill-rule:nonzero;stroke:none"
             d="m 0,0 -10.733,60.021 h 9.49 l 7.535,-46.788 7.584,46.788 h 9.496 L 12.453,0 Z" /></g><path
           id="path110"
           style="fill:#1d1d1b;fill-opacity:1;fill-rule:nonzero;stroke:none"
           d="m 119.391,378.292 h -9.057 v 60.021 h 9.057 z" /><g
           transform="translate(145.8136,423.8422)"
           id="g112"><path
             id="path114"
             style="fill:#1d1d1b;fill-opacity:1;fill-rule:nonzero;stroke:none"
             d="m 0,0 c 0,3.483 -1.726,5.221 -5.178,5.221 h -5.456 v -19.208 h 5.456 c 1.441,0 2.66,0.513 3.669,1.534 1.002,1.021 1.509,2.252 1.509,3.687 z m -5.413,14.47 c 5.042,0 8.747,-1.392 11.111,-4.17 C 7.77,7.875 8.809,4.491 8.809,0.148 v -8.722 c 0,-4.244 -1.614,-7.839 -4.837,-10.777 l 6.706,-26.2 H 0.891 l -5.494,22.612 h -0.81 -5.221 v -22.612 h -9.057 V 14.47 Z" /></g><g
           transform="translate(162.9898,378.2916)"
           id="g116"><path
             id="path118"
             style="fill:#ffffff;fill-opacity:1;fill-rule:nonzero;stroke:none"
             d="M 0,0 V 9.1 H 16.716 V 25.482 H 4.504 v 9.1 H 16.716 V 50.964 H 0 v 9.1 H 25.773 V 0 Z" /></g><g
           transform="translate(218.605,424.4775)"
           id="g120"><path
             id="path122"
             style="fill:#1d1d1b;fill-opacity:1;fill-rule:nonzero;stroke:none"
             d="m 0,0 -3.353,-23.657 h 6.706 z m -4.751,-32.473 -2.203,-13.795 h -9.428 l 10.208,60.02 H 6.279 l 10.053,-60.02 H 6.817 l -2.122,13.795 z" /></g><g
           transform="translate(261.7615,377.4421)"
           id="g124"><path
             id="path126"
             style="fill:#1d1d1b;fill-opacity:1;fill-rule:nonzero;stroke:none"
             d="m 0,0 c -3.99,0 -7.387,1.398 -10.177,4.194 -2.796,2.79 -4.194,6.168 -4.194,10.128 v 32.763 c 0,3.99 1.404,7.386 4.219,10.183 2.809,2.79 6.193,4.188 10.152,4.188 3.99,0 7.374,-1.404 10.158,-4.213 2.778,-2.815 4.164,-6.199 4.164,-10.158 V 40.236 H 4.937 v 7.041 c 0,1.435 -0.514,2.666 -1.534,3.687 -1.021,1.027 -2.252,1.534 -3.688,1.534 -1.441,0 -2.66,-0.507 -3.668,-1.534 -1.002,-1.021 -1.51,-2.252 -1.51,-3.687 V 14.421 c 0,-1.442 0.508,-2.661 1.51,-3.669 1.008,-1.002 2.227,-1.51 3.668,-1.51 1.436,0 2.667,0.508 3.688,1.51 1.02,1.008 1.534,2.227 1.534,3.669 v 8.283 h 9.385 V 14.322 C 14.322,10.331 12.917,6.947 10.109,4.17 7.3,1.392 3.928,0 0,0" /></g><g
           transform="translate(291.7657,403.6416)"
           id="g128"><path
             id="path130"
             style="fill:#1d1d1b;fill-opacity:1;fill-rule:nonzero;stroke:none"
             d="m 0,0 v -25.432 h -9.057 v 60.02 H 0 V 9.106 h 10.919 v 25.482 h 9.051 v -60.02 h -9.051 l 0,25.432 z" /></g><g
           transform="translate(334.7427,424.4775)"
           id="g132"><path
             id="path134"
             style="fill:#1d1d1b;fill-opacity:1;fill-rule:nonzero;stroke:none"
             d="m 0,0 -3.353,-23.657 h 6.706 z m -4.751,-32.473 -2.203,-13.795 h -9.428 l 10.208,60.02 H 6.279 l 10.053,-60.02 H 6.817 l -2.122,13.795 z" /></g><g
           transform="translate(363.6581,378.2092)"
           id="g136"><path
             id="path138"
             style="fill:#1d1d1b;fill-opacity:1;fill-rule:nonzero;stroke:none"
             d="m 0,0 -10.733,60.021 h 9.49 l 7.535,-46.788 7.584,46.788 h 9.496 L 12.453,0 Z" /></g><g
           transform="translate(393.6375,378.2092)"
           id="g140"><path
             id="path142"
             style="fill:#1d1d1b;fill-opacity:1;fill-rule:nonzero;stroke:none"
             d="m 0,0 v 60.064 h 25.773 v -9.1 H 9.057 V 34.582 h 12.212 v -9.1 H 9.057 V 9.1 H 25.773 V 0 Z" /></g><path
           id="path144"
           style="fill:#1d1d1b;fill-opacity:1;fill-rule:nonzero;stroke:none"
           d="m 426.129,387.217 h 9.057 v -9.057 h -9.057 z" /></g></g></g></svg>